<mxfile host="Electron" agent="Mozilla/5.0 (Windows NT 10.0; Win64; x64) AppleWebKit/537.36 (KHTML, like Gecko) draw.io/24.7.8 Chrome/128.0.6613.36 Electron/32.0.1 Safari/537.36" version="24.7.8">
  <diagram name="Page-1" id="MjW9wJx8TsuYarfzozEj">
    <mxGraphModel dx="810" dy="469" grid="1" gridSize="10" guides="1" tooltips="1" connect="1" arrows="1" fold="1" page="1" pageScale="1" pageWidth="1100" pageHeight="850" math="0" shadow="0">
      <root>
        <mxCell id="0" />
        <mxCell id="1" parent="0" />
        <mxCell id="kvC4jjaNbspcdyno63Sy-1" value="Master&lt;div&gt;SoC&lt;/div&gt;" style="rounded=0;whiteSpace=wrap;html=1;snapToPoint=1;arcSize=12;" parent="1" vertex="1">
          <mxGeometry x="280" y="80" width="120" height="200" as="geometry" />
        </mxCell>
        <mxCell id="kvC4jjaNbspcdyno63Sy-12" value="AD&lt;sub&gt;2&lt;/sub&gt;" style="text;html=1;align=center;verticalAlign=middle;resizable=1;points=[];autosize=1;strokeColor=none;fillColor=none;" parent="1" vertex="1">
          <mxGeometry x="270" y="105" width="50" height="30" as="geometry" />
        </mxCell>
        <mxCell id="kvC4jjaNbspcdyno63Sy-14" value="LCD" style="rounded=0;whiteSpace=wrap;html=1;" parent="1" vertex="1">
          <mxGeometry x="560" y="120" width="80" height="120" as="geometry" />
        </mxCell>
        <mxCell id="kvC4jjaNbspcdyno63Sy-15" value="" style="endArrow=none;html=1;rounded=0;entryX=0.004;entryY=0.331;entryDx=0;entryDy=0;entryPerimeter=0;exitX=1;exitY=0.4;exitDx=0;exitDy=0;exitPerimeter=0;" parent="1" source="kvC4jjaNbspcdyno63Sy-1" target="kvC4jjaNbspcdyno63Sy-14" edge="1">
          <mxGeometry width="50" height="50" relative="1" as="geometry">
            <mxPoint x="400" y="160" as="sourcePoint" />
            <mxPoint x="518.5599999999997" y="140.00000000000006" as="targetPoint" />
          </mxGeometry>
        </mxCell>
        <mxCell id="kvC4jjaNbspcdyno63Sy-17" value="" style="pointerEvents=1;verticalLabelPosition=bottom;shadow=0;dashed=0;align=center;html=1;verticalAlign=top;shape=mxgraph.electrical.signal_sources.protective_earth;strokeWidth=1;" parent="1" vertex="1">
          <mxGeometry x="590" y="250" width="20" height="15" as="geometry" />
        </mxCell>
        <mxCell id="kvC4jjaNbspcdyno63Sy-19" value="" style="pointerEvents=1;verticalLabelPosition=bottom;shadow=0;dashed=0;align=center;html=1;verticalAlign=top;shape=mxgraph.electrical.resistors.resistor_2;direction=south;strokeWidth=1;" parent="1" vertex="1">
          <mxGeometry x="435" y="72" width="10" height="60" as="geometry" />
        </mxCell>
        <mxCell id="kvC4jjaNbspcdyno63Sy-20" value="V&lt;sub&gt;dd&lt;/sub&gt;" style="verticalLabelPosition=top;verticalAlign=bottom;shape=mxgraph.electrical.signal_sources.vdd;shadow=0;dashed=0;align=center;strokeWidth=1;fontSize=24;html=1;flipV=1;noLabel=1;" parent="1" vertex="1">
          <mxGeometry x="592" y="108" width="16" height="12" as="geometry" />
        </mxCell>
        <mxCell id="kvC4jjaNbspcdyno63Sy-21" value="V&lt;sub&gt;dd&lt;/sub&gt;" style="text;html=1;align=center;verticalAlign=middle;resizable=1;points=[];autosize=1;strokeColor=none;fillColor=none;strokeWidth=1;" parent="1" vertex="1">
          <mxGeometry x="580" y="89" width="40" height="20" as="geometry" />
        </mxCell>
        <mxCell id="kvC4jjaNbspcdyno63Sy-23" value="" style="endArrow=none;html=1;rounded=0;entryX=1;entryY=0.5;entryDx=0;entryDy=0;entryPerimeter=0;exitX=0;exitY=0.57;exitDx=0;exitDy=0;exitPerimeter=0;strokeWidth=1;" parent="1" target="kvC4jjaNbspcdyno63Sy-19" edge="1">
          <mxGeometry width="50" height="50" relative="1" as="geometry">
            <mxPoint x="440.03" y="129.00000000000023" as="sourcePoint" />
            <mxPoint x="460" y="22.5" as="targetPoint" />
          </mxGeometry>
        </mxCell>
        <mxCell id="kvC4jjaNbspcdyno63Sy-26" value="V&lt;sub&gt;dd&lt;/sub&gt;" style="verticalLabelPosition=top;verticalAlign=bottom;shape=mxgraph.electrical.signal_sources.vdd;shadow=0;dashed=0;align=center;strokeWidth=1;fontSize=24;html=1;flipV=1;noLabel=1;" parent="1" vertex="1">
          <mxGeometry x="332" y="68" width="16" height="12" as="geometry" />
        </mxCell>
        <mxCell id="kvC4jjaNbspcdyno63Sy-27" value="V&lt;sub&gt;dd&lt;/sub&gt;" style="text;html=1;align=center;verticalAlign=middle;resizable=1;points=[];autosize=1;strokeColor=none;fillColor=none;strokeWidth=1;" parent="1" vertex="1">
          <mxGeometry x="320" y="48" width="40" height="20" as="geometry" />
        </mxCell>
        <mxCell id="kvC4jjaNbspcdyno63Sy-28" value="" style="pointerEvents=1;verticalLabelPosition=bottom;shadow=0;dashed=0;align=center;html=1;verticalAlign=top;shape=mxgraph.electrical.signal_sources.protective_earth;strokeWidth=1;" parent="1" vertex="1">
          <mxGeometry x="330" y="290" width="20" height="15" as="geometry" />
        </mxCell>
        <mxCell id="kvC4jjaNbspcdyno63Sy-29" value="V&lt;sub&gt;dd&lt;/sub&gt;" style="verticalLabelPosition=top;verticalAlign=bottom;shape=mxgraph.electrical.signal_sources.vdd;shadow=0;dashed=0;align=center;strokeWidth=1;fontSize=24;html=1;flipV=1;noLabel=1;" parent="1" vertex="1">
          <mxGeometry x="432" y="70" width="16" height="12" as="geometry" />
        </mxCell>
        <mxCell id="kvC4jjaNbspcdyno63Sy-30" value="V&lt;sub&gt;dd&lt;/sub&gt;" style="text;html=1;align=center;verticalAlign=middle;resizable=1;points=[];autosize=1;strokeColor=none;fillColor=none;strokeWidth=1;" parent="1" vertex="1">
          <mxGeometry x="420" y="50" width="40" height="20" as="geometry" />
        </mxCell>
        <mxCell id="kvC4jjaNbspcdyno63Sy-31" value="" style="endArrow=none;html=1;rounded=0;exitX=0.5;exitY=1;exitDx=0;exitDy=0;entryX=0.5;entryY=0;entryDx=0;entryDy=0;entryPerimeter=0;" parent="1" source="kvC4jjaNbspcdyno63Sy-1" target="kvC4jjaNbspcdyno63Sy-28" edge="1">
          <mxGeometry width="50" height="50" relative="1" as="geometry">
            <mxPoint x="450" y="260" as="sourcePoint" />
            <mxPoint x="500" y="210" as="targetPoint" />
          </mxGeometry>
        </mxCell>
        <mxCell id="kvC4jjaNbspcdyno63Sy-32" value="" style="endArrow=none;html=1;rounded=0;entryX=0.5;entryY=1;entryDx=0;entryDy=0;exitX=0.5;exitY=0;exitDx=0;exitDy=0;exitPerimeter=0;" parent="1" source="kvC4jjaNbspcdyno63Sy-17" target="kvC4jjaNbspcdyno63Sy-14" edge="1">
          <mxGeometry width="50" height="50" relative="1" as="geometry">
            <mxPoint x="450" y="260" as="sourcePoint" />
            <mxPoint x="500" y="210" as="targetPoint" />
          </mxGeometry>
        </mxCell>
        <mxCell id="kvC4jjaNbspcdyno63Sy-33" value="SDA&lt;sub&gt;1&lt;/sub&gt;" style="text;html=1;align=center;verticalAlign=middle;resizable=1;points=[];autosize=1;strokeColor=none;fillColor=none;" parent="1" vertex="1">
          <mxGeometry x="355" y="145" width="50" height="30" as="geometry" />
        </mxCell>
        <mxCell id="kvC4jjaNbspcdyno63Sy-35" value="SDA" style="text;html=1;align=center;verticalAlign=middle;resizable=1;points=[];autosize=1;strokeColor=none;fillColor=none;" parent="1" vertex="1">
          <mxGeometry x="560" y="150" width="30" height="20" as="geometry" />
        </mxCell>
        <mxCell id="kvC4jjaNbspcdyno63Sy-37" value="SCL&lt;sub&gt;1&lt;/sub&gt;" style="text;html=1;align=center;verticalAlign=middle;resizable=1;points=[];autosize=1;strokeColor=none;fillColor=none;" parent="1" vertex="1">
          <mxGeometry x="355" y="185" width="50" height="30" as="geometry" />
        </mxCell>
        <mxCell id="kvC4jjaNbspcdyno63Sy-38" value="SCL" style="text;html=1;align=center;verticalAlign=middle;resizable=1;points=[];autosize=1;strokeColor=none;fillColor=none;" parent="1" vertex="1">
          <mxGeometry x="550" y="190" width="50" height="20" as="geometry" />
        </mxCell>
        <mxCell id="kvC4jjaNbspcdyno63Sy-39" value="" style="endArrow=none;html=1;rounded=0;exitX=1;exitY=0.6;exitDx=0;exitDy=0;exitPerimeter=0;" parent="1" source="kvC4jjaNbspcdyno63Sy-1" edge="1">
          <mxGeometry width="50" height="50" relative="1" as="geometry">
            <mxPoint x="480" y="200" as="sourcePoint" />
            <mxPoint x="560" y="200" as="targetPoint" />
          </mxGeometry>
        </mxCell>
        <mxCell id="kvC4jjaNbspcdyno63Sy-43" value="" style="pointerEvents=1;verticalLabelPosition=bottom;shadow=0;dashed=0;align=center;html=1;verticalAlign=top;shape=mxgraph.electrical.resistors.resistor_2;direction=south;strokeWidth=1;" parent="1" vertex="1">
          <mxGeometry x="475" y="101" width="10" height="60" as="geometry" />
        </mxCell>
        <mxCell id="kvC4jjaNbspcdyno63Sy-45" value="V&lt;sub&gt;dd&lt;/sub&gt;" style="verticalLabelPosition=top;verticalAlign=bottom;shape=mxgraph.electrical.signal_sources.vdd;shadow=0;dashed=0;align=center;strokeWidth=1;fontSize=24;html=1;flipV=1;noLabel=1;" parent="1" vertex="1">
          <mxGeometry x="472" y="99.5" width="16" height="12" as="geometry" />
        </mxCell>
        <mxCell id="kvC4jjaNbspcdyno63Sy-46" value="V&lt;sub&gt;dd&lt;/sub&gt;" style="text;html=1;align=center;verticalAlign=middle;resizable=1;points=[];autosize=1;strokeColor=none;fillColor=none;strokeWidth=1;" parent="1" vertex="1">
          <mxGeometry x="460" y="80" width="40" height="20" as="geometry" />
        </mxCell>
        <mxCell id="kvC4jjaNbspcdyno63Sy-47" value="" style="endArrow=none;html=1;rounded=0;" parent="1" edge="1">
          <mxGeometry width="50" height="50" relative="1" as="geometry">
            <mxPoint x="440" y="160" as="sourcePoint" />
            <mxPoint x="440" y="130" as="targetPoint" />
          </mxGeometry>
        </mxCell>
        <mxCell id="kvC4jjaNbspcdyno63Sy-48" value="" style="endArrow=none;html=1;rounded=0;entryX=1;entryY=0.5;entryDx=0;entryDy=0;entryPerimeter=0;" parent="1" target="kvC4jjaNbspcdyno63Sy-43" edge="1">
          <mxGeometry width="50" height="50" relative="1" as="geometry">
            <mxPoint x="480.1" y="200" as="sourcePoint" />
            <mxPoint x="479.90000000000003" y="142.5" as="targetPoint" />
          </mxGeometry>
        </mxCell>
        <mxCell id="kvC4jjaNbspcdyno63Sy-51" value="V&lt;sub&gt;dd&lt;/sub&gt;" style="verticalLabelPosition=top;verticalAlign=bottom;shape=mxgraph.electrical.signal_sources.vdd;shadow=0;dashed=0;align=center;strokeWidth=1;fontSize=24;html=1;flipV=1;noLabel=1;" parent="1" vertex="1">
          <mxGeometry x="212" y="80" width="16" height="12" as="geometry" />
        </mxCell>
        <mxCell id="kvC4jjaNbspcdyno63Sy-52" value="V&lt;sub&gt;dd&lt;/sub&gt;" style="text;html=1;align=center;verticalAlign=middle;resizable=1;points=[];autosize=1;strokeColor=none;fillColor=none;strokeWidth=1;" parent="1" vertex="1">
          <mxGeometry x="200" y="60" width="40" height="20" as="geometry" />
        </mxCell>
        <mxCell id="kvC4jjaNbspcdyno63Sy-53" value="" style="pointerEvents=1;verticalLabelPosition=bottom;shadow=0;dashed=0;align=center;html=1;verticalAlign=top;shape=mxgraph.electrical.resistors.potentiometer_2;direction=north;" parent="1" vertex="1">
          <mxGeometry x="215" y="90" width="20" height="60" as="geometry" />
        </mxCell>
        <mxCell id="kvC4jjaNbspcdyno63Sy-54" value="" style="pointerEvents=1;verticalLabelPosition=bottom;shadow=0;dashed=0;align=center;html=1;verticalAlign=top;shape=mxgraph.electrical.signal_sources.protective_earth;strokeWidth=1;" parent="1" vertex="1">
          <mxGeometry x="210" y="160" width="20" height="15" as="geometry" />
        </mxCell>
        <mxCell id="kvC4jjaNbspcdyno63Sy-55" value="" style="endArrow=none;html=1;rounded=0;entryX=0;entryY=0.25;entryDx=0;entryDy=0;entryPerimeter=0;exitX=0.5;exitY=0;exitDx=0;exitDy=0;exitPerimeter=0;" parent="1" source="kvC4jjaNbspcdyno63Sy-54" target="kvC4jjaNbspcdyno63Sy-53" edge="1">
          <mxGeometry width="50" height="50" relative="1" as="geometry">
            <mxPoint x="330" y="200" as="sourcePoint" />
            <mxPoint x="380" y="150" as="targetPoint" />
          </mxGeometry>
        </mxCell>
        <mxCell id="kvC4jjaNbspcdyno63Sy-56" value="" style="endArrow=none;html=1;rounded=0;exitX=0.5;exitY=1;exitDx=0;exitDy=0;exitPerimeter=0;" parent="1" source="kvC4jjaNbspcdyno63Sy-53" edge="1">
          <mxGeometry width="50" height="50" relative="1" as="geometry">
            <mxPoint x="220" y="111.5" as="sourcePoint" />
            <mxPoint x="280" y="120" as="targetPoint" />
          </mxGeometry>
        </mxCell>
      </root>
    </mxGraphModel>
  </diagram>
</mxfile>
